<mxfile host="65bd71144e">
    <diagram id="ZsGx2dJnV0HVM6ug_HH3" name="Page-1">
        <mxGraphModel dx="2284" dy="1887" grid="1" gridSize="10" guides="1" tooltips="1" connect="1" arrows="1" fold="1" page="1" pageScale="1" pageWidth="850" pageHeight="1100" math="0" shadow="0">
            <root>
                <mxCell id="0"/>
                <mxCell id="1" parent="0"/>
                <mxCell id="22" value="" style="shape=document;whiteSpace=wrap;html=1;boundedLbl=1;fillColor=default;size=0.1935483870967742;" parent="1" vertex="1">
                    <mxGeometry x="-310" y="-20" width="270" height="290" as="geometry"/>
                </mxCell>
                <mxCell id="5" value="" style="edgeStyle=none;html=1;startArrow=none;" parent="1" source="62" target="4" edge="1">
                    <mxGeometry relative="1" as="geometry"/>
                </mxCell>
                <mxCell id="2" value="&lt;div style=&quot;direction: rtl;&quot;&gt;&lt;span style=&quot;background-color: initial;&quot;&gt;1:אמייל הוכנס&lt;/span&gt;&lt;/div&gt;" style="rounded=1;whiteSpace=wrap;html=1;" parent="1" vertex="1">
                    <mxGeometry x="400" y="260" width="120" height="70" as="geometry"/>
                </mxCell>
                <mxCell id="32" value="כן" style="edgeStyle=none;html=1;entryX=0.5;entryY=0;entryDx=0;entryDy=0;fontSize=12;startArrow=none;" parent="1" source="33" target="31" edge="1">
                    <mxGeometry x="-0.625" relative="1" as="geometry">
                        <mxPoint as="offset"/>
                    </mxGeometry>
                </mxCell>
                <mxCell id="48" value="&lt;div style=&quot;direction: rtl;&quot;&gt;כן - אבל&lt;/div&gt;" style="edgeStyle=none;html=1;fontSize=12;exitX=1;exitY=0.5;exitDx=0;exitDy=0;exitPerimeter=0;" parent="1" source="33" edge="1">
                    <mxGeometry x="-0.2523" relative="1" as="geometry">
                        <mxPoint x="630" y="640" as="targetPoint"/>
                        <Array as="points">
                            <mxPoint x="550" y="755"/>
                            <mxPoint x="550" y="670"/>
                            <mxPoint x="570" y="660"/>
                        </Array>
                        <mxPoint as="offset"/>
                    </mxGeometry>
                </mxCell>
                <mxCell id="58" value="לא" style="edgeStyle=none;html=1;entryX=1;entryY=0.5;entryDx=0;entryDy=0;entryPerimeter=0;fontSize=12;" parent="1" source="4" target="60" edge="1">
                    <mxGeometry x="-0.667" y="5" relative="1" as="geometry">
                        <mxPoint x="189.04000000000042" y="520.1000000000004" as="targetPoint"/>
                        <mxPoint as="offset"/>
                    </mxGeometry>
                </mxCell>
                <mxCell id="4" value="&lt;div style=&quot;direction: rtl;&quot;&gt;&lt;span style=&quot;background-color: initial;&quot;&gt;יש שם אימייל שמור?&lt;/span&gt;&lt;/div&gt;" style="rhombus;whiteSpace=wrap;html=1;rounded=1;fillColor=#d5e8d4;strokeColor=#82b366;gradientColor=#97d077;fontColor=#0d0c0c;" parent="1" vertex="1">
                    <mxGeometry x="390" y="600" width="140" height="80" as="geometry"/>
                </mxCell>
                <mxCell id="7" value="LOCAL STORAGE" style="shape=cylinder3;whiteSpace=wrap;html=1;boundedLbl=1;backgroundOutline=1;size=15;" parent="1" vertex="1">
                    <mxGeometry x="320" y="-30" width="280" height="60" as="geometry"/>
                </mxCell>
                <mxCell id="9" style="edgeStyle=none;html=1;entryX=0.5;entryY=0;entryDx=0;entryDy=0;entryPerimeter=0;" parent="1" source="8" target="7" edge="1">
                    <mxGeometry relative="1" as="geometry"/>
                </mxCell>
                <mxCell id="8" value="START" style="ellipse;whiteSpace=wrap;html=1;aspect=fixed;" parent="1" vertex="1">
                    <mxGeometry x="420" y="-140" width="80" height="80" as="geometry"/>
                </mxCell>
                <mxCell id="24" style="edgeStyle=none;html=1;entryX=0.5;entryY=0;entryDx=0;entryDy=0;" parent="1" source="10" target="23" edge="1">
                    <mxGeometry relative="1" as="geometry"/>
                </mxCell>
                <mxCell id="10" value="&lt;div style=&quot;direction: rtl;&quot;&gt;&lt;span style=&quot;background-color: initial;&quot;&gt;העתקת בלוב מה-LOCALSTORAGE&lt;br&gt;ושמירה כקובץ DB ARR&lt;/span&gt;&lt;/div&gt;" style="shape=internalStorage;whiteSpace=wrap;html=1;backgroundOutline=1;" parent="1" vertex="1">
                    <mxGeometry x="320" y="70" width="280" height="80" as="geometry"/>
                </mxCell>
                <mxCell id="11" value="" style="endArrow=classic;html=1;exitX=0.5;exitY=1;exitDx=0;exitDy=0;exitPerimeter=0;entryX=0.5;entryY=0;entryDx=0;entryDy=0;" parent="1" source="7" target="10" edge="1">
                    <mxGeometry width="50" height="50" relative="1" as="geometry">
                        <mxPoint x="400" y="300" as="sourcePoint"/>
                        <mxPoint x="450" y="250" as="targetPoint"/>
                    </mxGeometry>
                </mxCell>
                <mxCell id="12" value="" style="shape=flexArrow;endArrow=classic;html=1;endWidth=34;endSize=12;exitX=0;exitY=0.5;exitDx=0;exitDy=0;exitPerimeter=0;entryX=1;entryY=0.5;entryDx=0;entryDy=0;" parent="1" source="7" target="18" edge="1">
                    <mxGeometry width="50" height="50" relative="1" as="geometry">
                        <mxPoint x="310" as="sourcePoint"/>
                        <mxPoint x="210" as="targetPoint"/>
                        <Array as="points">
                            <mxPoint x="280" y="20"/>
                        </Array>
                    </mxGeometry>
                </mxCell>
                <mxCell id="13" value="&amp;nbsp; &amp;nbsp;ID : rand()&lt;br&gt;&amp;nbsp; &amp;nbsp;uName : user input&lt;br&gt;&amp;nbsp; &amp;nbsp;Email : &quot;&lt;br&gt;&amp;nbsp; &amp;nbsp;Password : &quot;" style="shape=document;whiteSpace=wrap;html=1;boundedLbl=1;align=left;" parent="1" vertex="1">
                    <mxGeometry x="20" y="-100" width="120" height="100" as="geometry"/>
                </mxCell>
                <mxCell id="14" value="&amp;nbsp; &amp;nbsp;ID : rand()&lt;br&gt;&amp;nbsp; &amp;nbsp;uName : user input&lt;br&gt;&amp;nbsp; &amp;nbsp;Email : &quot;&lt;br&gt;&amp;nbsp; &amp;nbsp;Password : &quot;" style="shape=document;whiteSpace=wrap;html=1;boundedLbl=1;align=left;" parent="1" vertex="1">
                    <mxGeometry x="30" y="-90" width="120" height="100" as="geometry"/>
                </mxCell>
                <mxCell id="15" value="&amp;nbsp; &amp;nbsp;ID : rand()&lt;br&gt;&amp;nbsp; &amp;nbsp;uName : user input&lt;br&gt;&amp;nbsp; &amp;nbsp;Email : &quot;&lt;br&gt;&amp;nbsp; &amp;nbsp;Password : &quot;" style="shape=document;whiteSpace=wrap;html=1;boundedLbl=1;align=left;" parent="1" vertex="1">
                    <mxGeometry x="40" y="-80" width="120" height="100" as="geometry"/>
                </mxCell>
                <mxCell id="16" value="&amp;nbsp; &amp;nbsp;ID : rand()&lt;br&gt;&amp;nbsp; &amp;nbsp;uName : user input&lt;br&gt;&amp;nbsp; &amp;nbsp;Email : &quot;&lt;br&gt;&amp;nbsp; &amp;nbsp;Password : &quot;" style="shape=document;whiteSpace=wrap;html=1;boundedLbl=1;align=left;" parent="1" vertex="1">
                    <mxGeometry x="50" y="-70" width="120" height="100" as="geometry"/>
                </mxCell>
                <mxCell id="17" value="&amp;nbsp; &amp;nbsp;ID : rand()&lt;br&gt;&amp;nbsp; &amp;nbsp;uName : user input&lt;br&gt;&amp;nbsp; &amp;nbsp;Email : &quot;&lt;br&gt;&amp;nbsp; &amp;nbsp;Password : &quot;" style="shape=document;whiteSpace=wrap;html=1;boundedLbl=1;align=left;" parent="1" vertex="1">
                    <mxGeometry x="60" y="-60" width="120" height="100" as="geometry"/>
                </mxCell>
                <mxCell id="18" value="&amp;nbsp; &amp;nbsp;ID : rand()&lt;br&gt;&amp;nbsp; &amp;nbsp;uName : user input&lt;br&gt;&amp;nbsp; &amp;nbsp;Email : &quot;&lt;br&gt;&amp;nbsp; &amp;nbsp;Password : &quot;" style="shape=document;whiteSpace=wrap;html=1;boundedLbl=1;align=left;" parent="1" vertex="1">
                    <mxGeometry x="70" y="-50" width="120" height="100" as="geometry"/>
                </mxCell>
                <mxCell id="20" value="users : [&amp;nbsp;&lt;br&gt;&lt;span style=&quot;white-space: pre;&quot;&gt;&#9;&lt;/span&gt;&lt;span style=&quot;white-space: pre;&quot;&gt;&#9;&lt;/span&gt;id:{&lt;br&gt;&lt;span style=&quot;white-space: pre;&quot;&gt;&#9;&lt;/span&gt;&lt;span style=&quot;white-space: pre;&quot;&gt;&#9;&lt;/span&gt;&lt;span style=&quot;white-space: pre;&quot;&gt;&#9;&lt;/span&gt;uName:צשה&lt;br&gt;&lt;span style=&quot;white-space: pre;&quot;&gt;&#9;&lt;/span&gt;&lt;span style=&quot;white-space: pre;&quot;&gt;&#9;&lt;/span&gt;&lt;span style=&quot;white-space: pre;&quot;&gt;&#9;&lt;/span&gt;eMail:a@b.C&lt;br&gt;&lt;span style=&quot;white-space: pre;&quot;&gt;&#9;&lt;/span&gt;&lt;span style=&quot;white-space: pre;&quot;&gt;&#9;&lt;/span&gt;&lt;span style=&quot;white-space: pre;&quot;&gt;&#9;&lt;/span&gt;password:123456&lt;br&gt;&lt;span style=&quot;white-space: pre;&quot;&gt;&#9;&lt;/span&gt;&lt;span style=&quot;white-space: pre;&quot;&gt;&#9;&lt;/span&gt;&lt;span style=&quot;white-space: pre;&quot;&gt;&#9;&lt;/span&gt;loginDate:24/10/24&lt;br&gt;&lt;span style=&quot;white-space: pre;&quot;&gt;&#9;&lt;/span&gt;&lt;span style=&quot;white-space: pre;&quot;&gt;&#9;&lt;/span&gt;&lt;span style=&quot;white-space: pre;&quot;&gt;&#9;&lt;/span&gt;settings:{&lt;br&gt;&lt;span style=&quot;white-space: pre;&quot;&gt;&#9;&lt;/span&gt;&lt;span style=&quot;white-space: pre;&quot;&gt;&#9;&lt;/span&gt;&lt;span style=&quot;white-space: pre;&quot;&gt;&#9;&lt;/span&gt;&lt;span style=&quot;white-space: pre;&quot;&gt;&#9;&lt;/span&gt;&lt;span style=&quot;white-space: pre;&quot;&gt;&#9;&lt;/span&gt;theme:light || dark&lt;br&gt;&lt;span style=&quot;white-space: pre;&quot;&gt;&#9;&lt;/span&gt;&lt;span style=&quot;white-space: pre;&quot;&gt;&#9;&lt;/span&gt;&lt;span style=&quot;white-space: pre;&quot;&gt;&#9;&lt;/span&gt;&lt;span style=&quot;white-space: pre;&quot;&gt;&#9;&lt;/span&gt;&lt;span style=&quot;white-space: pre;&quot;&gt;&#9;&lt;/span&gt;font:moses&lt;br&gt;&lt;span style=&quot;white-space: pre;&quot;&gt;&#9;&lt;/span&gt;&lt;span style=&quot;white-space: pre;&quot;&gt;&#9;&lt;/span&gt;&lt;span style=&quot;white-space: pre;&quot;&gt;&#9;&lt;/span&gt;&lt;span style=&quot;white-space: pre;&quot;&gt;&#9;&lt;/span&gt;&lt;span style=&quot;white-space: pre;&quot;&gt;&#9;&lt;/span&gt;...&lt;br&gt;&lt;span style=&quot;white-space: pre;&quot;&gt;&#9;&lt;/span&gt;&lt;span style=&quot;white-space: pre;&quot;&gt;&#9;&lt;/span&gt;&lt;span style=&quot;white-space: pre;&quot;&gt;&#9;&lt;/span&gt;&lt;span style=&quot;white-space: pre;&quot;&gt;&#9;&lt;/span&gt;&lt;span style=&quot;white-space: pre;&quot;&gt;&#9;&lt;/span&gt;}&lt;br&gt;&lt;span style=&quot;white-space: pre;&quot;&gt;&#9;&lt;/span&gt;&lt;span style=&quot;white-space: pre;&quot;&gt;&#9;&lt;/span&gt;&amp;nbsp; &amp;nbsp; &amp;nbsp;},&lt;br&gt;&lt;span style=&quot;white-space: pre;&quot;&gt;&#9;&lt;/span&gt;&lt;span style=&quot;white-space: pre;&quot;&gt;&#9;&lt;/span&gt;id:{&lt;br&gt;&lt;span style=&quot;white-space: pre;&quot;&gt;&#9;&lt;/span&gt;&lt;span style=&quot;white-space: pre;&quot;&gt;&#9;&lt;/span&gt;&lt;span style=&quot;white-space: pre;&quot;&gt;&#9;&lt;/span&gt;uName: ....." style="text;html=1;strokeColor=none;fillColor=none;align=left;verticalAlign=middle;whiteSpace=wrap;rounded=0;" parent="1" vertex="1">
                    <mxGeometry x="-300" y="-10" width="250" height="240" as="geometry"/>
                </mxCell>
                <mxCell id="25" style="edgeStyle=none;html=1;entryX=0.5;entryY=0;entryDx=0;entryDy=0;" parent="1" source="23" target="2" edge="1">
                    <mxGeometry relative="1" as="geometry"/>
                </mxCell>
                <mxCell id="23" value="&lt;div style=&quot;direction: rtl;&quot;&gt;&lt;span style=&quot;background-color: initial;&quot;&gt;המרה לקובץ JSON OBJECT&lt;/span&gt;&lt;/div&gt;" style="shape=step;perimeter=stepPerimeter;whiteSpace=wrap;html=1;fixedSize=1;fillColor=default;horizontal=1;" parent="1" vertex="1">
                    <mxGeometry x="365" y="170" width="190" height="60" as="geometry"/>
                </mxCell>
                <mxCell id="26" value="" style="edgeStyle=none;html=1;endArrow=none;startArrow=none;" parent="1" source="81" target="6" edge="1">
                    <mxGeometry relative="1" as="geometry">
                        <mxPoint x="460" y="350" as="sourcePoint"/>
                        <mxPoint x="460" y="500" as="targetPoint"/>
                    </mxGeometry>
                </mxCell>
                <mxCell id="27" style="edgeStyle=none;html=1;entryX=0;entryY=0.5;entryDx=0;entryDy=0;" parent="1" source="6" target="23" edge="1">
                    <mxGeometry relative="1" as="geometry">
                        <Array as="points">
                            <mxPoint x="330" y="400"/>
                            <mxPoint x="330" y="240"/>
                        </Array>
                    </mxGeometry>
                </mxCell>
                <mxCell id="6" value="ביצוע הקלדת חיפוש למשתמש קיים&lt;div style=&quot;direction: rtl;&quot;&gt;&lt;/div&gt;" style="shape=tape;whiteSpace=wrap;html=1;" parent="1" vertex="1">
                    <mxGeometry x="375" y="350" width="180" height="110" as="geometry"/>
                </mxCell>
                <mxCell id="36" value="" style="edgeStyle=none;html=1;fontSize=12;" parent="1" source="31" target="35" edge="1">
                    <mxGeometry relative="1" as="geometry"/>
                </mxCell>
                <mxCell id="31" value="&lt;div style=&quot;direction: rtl;&quot;&gt;&lt;span style=&quot;background-color: initial;&quot;&gt;2: הכנסת סיסמה&lt;/span&gt;&lt;/div&gt;" style="rounded=1;whiteSpace=wrap;html=1;fontSize=12;fillColor=default;" parent="1" vertex="1">
                    <mxGeometry x="400" y="840" width="120" height="40" as="geometry"/>
                </mxCell>
                <mxCell id="34" value="כן" style="edgeStyle=none;html=1;entryX=0.5;entryY=0;entryDx=0;entryDy=0;fontSize=12;endArrow=none;startArrow=none;" parent="1" source="86" target="33" edge="1">
                    <mxGeometry x="0.3333" relative="1" as="geometry">
                        <mxPoint x="460" y="680" as="sourcePoint"/>
                        <mxPoint x="460" y="840" as="targetPoint"/>
                        <mxPoint as="offset"/>
                    </mxGeometry>
                </mxCell>
                <mxCell id="33" value="&lt;div style=&quot;direction: rtl;&quot;&gt;&lt;span style=&quot;background-color: initial;&quot;&gt;הוספת כיתוב&amp;nbsp;&lt;br&gt;שלום &quot;שם משתמש&quot;&lt;/span&gt;&lt;/div&gt;" style="shape=tape;whiteSpace=wrap;html=1;fillColor=#d5e8d4;gradientColor=#97d077;strokeColor=#82b366;fontColor=#151313;" parent="1" vertex="1">
                    <mxGeometry x="400" y="710" width="120" height="90" as="geometry"/>
                </mxCell>
                <mxCell id="37" value="כן" style="edgeStyle=none;html=1;fontSize=12;entryX=0.5;entryY=0;entryDx=0;entryDy=0;" parent="1" source="35" target="38" edge="1">
                    <mxGeometry relative="1" as="geometry">
                        <mxPoint x="460" y="1030" as="targetPoint"/>
                    </mxGeometry>
                </mxCell>
                <mxCell id="45" value="לא" style="edgeStyle=none;html=1;fontSize=12;entryX=0;entryY=0.5;entryDx=0;entryDy=0;exitX=0;exitY=0.5;exitDx=0;exitDy=0;" parent="1" source="35" target="31" edge="1">
                    <mxGeometry x="-0.7681" y="5" relative="1" as="geometry">
                        <mxPoint x="250" y="920" as="sourcePoint"/>
                        <mxPoint x="230" y="931.0344827586207" as="targetPoint"/>
                        <Array as="points">
                            <mxPoint x="260" y="935"/>
                            <mxPoint x="260" y="860"/>
                        </Array>
                        <mxPoint as="offset"/>
                    </mxGeometry>
                </mxCell>
                <mxCell id="72" value="לא" style="edgeStyle=none;html=1;entryX=0.2;entryY=0.863;entryDx=0;entryDy=0;entryPerimeter=0;fontSize=12;dashed=1;" parent="1" source="35" target="49" edge="1">
                    <mxGeometry x="-0.8165" y="1" relative="1" as="geometry">
                        <Array as="points">
                            <mxPoint x="580" y="930"/>
                            <mxPoint x="580" y="880"/>
                            <mxPoint x="580" y="690"/>
                        </Array>
                        <mxPoint as="offset"/>
                    </mxGeometry>
                </mxCell>
                <mxCell id="35" value="&lt;div style=&quot;direction: rtl;&quot;&gt;&lt;span style=&quot;background-color: initial;&quot;&gt;הסיסמה תקינה?&lt;/span&gt;&lt;/div&gt;" style="rhombus;whiteSpace=wrap;html=1;rounded=1;" parent="1" vertex="1">
                    <mxGeometry x="400" y="900" width="120" height="70" as="geometry"/>
                </mxCell>
                <mxCell id="38" value="סיום" style="swimlane;fontStyle=0;childLayout=stackLayout;horizontal=1;startSize=30;horizontalStack=0;resizeParent=1;resizeParentMax=0;resizeLast=0;collapsible=1;marginBottom=0;whiteSpace=wrap;html=1;fontSize=12;fillColor=default;" parent="1" vertex="1">
                    <mxGeometry x="390" y="1020" width="140" height="120" as="geometry"/>
                </mxCell>
                <mxCell id="39" value="Item 1" style="text;strokeColor=none;fillColor=none;align=left;verticalAlign=middle;spacingLeft=4;spacingRight=4;overflow=hidden;points=[[0,0.5],[1,0.5]];portConstraint=eastwest;rotatable=0;whiteSpace=wrap;html=1;fontSize=12;" parent="38" vertex="1">
                    <mxGeometry y="30" width="140" height="30" as="geometry"/>
                </mxCell>
                <mxCell id="40" value="Item 2" style="text;strokeColor=none;fillColor=none;align=left;verticalAlign=middle;spacingLeft=4;spacingRight=4;overflow=hidden;points=[[0,0.5],[1,0.5]];portConstraint=eastwest;rotatable=0;whiteSpace=wrap;html=1;fontSize=12;" parent="38" vertex="1">
                    <mxGeometry y="60" width="140" height="30" as="geometry"/>
                </mxCell>
                <mxCell id="41" value="Item 3" style="text;strokeColor=none;fillColor=none;align=left;verticalAlign=middle;spacingLeft=4;spacingRight=4;overflow=hidden;points=[[0,0.5],[1,0.5]];portConstraint=eastwest;rotatable=0;whiteSpace=wrap;html=1;fontSize=12;" parent="38" vertex="1">
                    <mxGeometry y="90" width="140" height="30" as="geometry"/>
                </mxCell>
                <mxCell id="46" value="הודעת שגיאה" style="shape=tape;whiteSpace=wrap;html=1;fontSize=12;fillColor=default;" parent="1" vertex="1">
                    <mxGeometry x="200" y="870" width="120" height="70" as="geometry"/>
                </mxCell>
                <mxCell id="51" style="edgeStyle=none;html=1;entryX=0.5;entryY=0;entryDx=0;entryDy=0;fontSize=12;" parent="1" source="49" target="50" edge="1">
                    <mxGeometry relative="1" as="geometry"/>
                </mxCell>
                <mxCell id="49" value="משתמש שכח את הסיסמה" style="ellipse;shape=cloud;whiteSpace=wrap;html=1;fontSize=12;fillColor=default;" parent="1" vertex="1">
                    <mxGeometry x="620" y="600" width="120" height="80" as="geometry"/>
                </mxCell>
                <mxCell id="53" style="edgeStyle=none;html=1;fontSize=12;" parent="1" source="50" target="52" edge="1">
                    <mxGeometry relative="1" as="geometry"/>
                </mxCell>
                <mxCell id="50" value="&lt;div style=&quot;direction: rtl;&quot;&gt;&lt;span style=&quot;background-color: initial;&quot;&gt;2.1 משתמש לחץ &quot;שכחתי סיסמה&quot;&lt;/span&gt;&lt;/div&gt;" style="rounded=1;whiteSpace=wrap;html=1;fontSize=12;fillColor=default;" parent="1" vertex="1">
                    <mxGeometry x="620" y="730" width="120" height="50" as="geometry"/>
                </mxCell>
                <mxCell id="55" style="edgeStyle=none;html=1;entryX=0.5;entryY=0;entryDx=0;entryDy=0;fontSize=12;" parent="1" source="52" target="54" edge="1">
                    <mxGeometry relative="1" as="geometry"/>
                </mxCell>
                <mxCell id="52" value="&lt;div style=&quot;direction: rtl;&quot;&gt;נשלח אימייל עם&amp;nbsp;&lt;br&gt;הודעת איפוס סיסמה&lt;/div&gt;" style="shape=tape;whiteSpace=wrap;html=1;" parent="1" vertex="1">
                    <mxGeometry x="620" y="810" width="120" height="90" as="geometry"/>
                </mxCell>
                <mxCell id="56" style="edgeStyle=none;html=1;entryX=1;entryY=0.5;entryDx=0;entryDy=0;fontSize=12;" parent="1" source="54" target="31" edge="1">
                    <mxGeometry relative="1" as="geometry">
                        <Array as="points">
                            <mxPoint x="680" y="1020"/>
                            <mxPoint x="680" y="1060"/>
                            <mxPoint x="560" y="1060"/>
                            <mxPoint x="560" y="860"/>
                        </Array>
                    </mxGeometry>
                </mxCell>
                <mxCell id="54" value="&lt;div style=&quot;direction: rtl;&quot;&gt;&lt;span style=&quot;background-color: initial;&quot;&gt;שם משתמש ננעל בתיבת הקלט &lt;br&gt;עד לשלב הכנסת הסיסמה החדשה&amp;nbsp;&lt;br&gt;שנשלחה לאימייל של היוזר&lt;/span&gt;&lt;/div&gt;" style="shape=trapezoid;perimeter=trapezoidPerimeter;whiteSpace=wrap;html=1;fixedSize=1;fontSize=12;fillColor=default;" parent="1" vertex="1">
                    <mxGeometry x="585" y="940" width="190" height="50" as="geometry"/>
                </mxCell>
                <mxCell id="65" style="edgeStyle=none;html=1;fontSize=12;" parent="1" source="60" edge="1">
                    <mxGeometry relative="1" as="geometry">
                        <mxPoint x="30" y="710" as="targetPoint"/>
                    </mxGeometry>
                </mxCell>
                <mxCell id="60" value="&lt;div style=&quot;direction: rtl;&quot;&gt;פתיחת מסך הרשמת משתמש עם שדה&amp;nbsp;&lt;br&gt;אישור סיסמה&lt;/div&gt;" style="shape=tape;whiteSpace=wrap;html=1;fontSize=12;fillColor=#6d8764;size=0.2;fontColor=#ffffff;strokeColor=#3A5431;" parent="1" vertex="1">
                    <mxGeometry x="-30" y="610" width="120" height="70" as="geometry"/>
                </mxCell>
                <mxCell id="63" value="" style="edgeStyle=none;html=1;startArrow=none;endArrow=none;" parent="1" source="6" target="62" edge="1">
                    <mxGeometry relative="1" as="geometry">
                        <mxPoint x="460" y="450" as="sourcePoint"/>
                        <mxPoint x="460" y="600" as="targetPoint"/>
                    </mxGeometry>
                </mxCell>
                <mxCell id="62" value="&lt;div style=&quot;direction: rtl;&quot;&gt;&lt;span style=&quot;background-color: initial;&quot;&gt;בעת עזיבת הסמן את שדה הקלט אימייל&amp;nbsp;&lt;br&gt;&lt;br&gt;&lt;/span&gt;&lt;/div&gt;" style="shape=step;perimeter=stepPerimeter;whiteSpace=wrap;html=1;fixedSize=1;fontSize=12;fillColor=default;" parent="1" vertex="1">
                    <mxGeometry x="392.5" y="500" width="140" height="50" as="geometry"/>
                </mxCell>
                <mxCell id="67" style="edgeStyle=none;html=1;entryX=0.5;entryY=0;entryDx=0;entryDy=0;fontSize=12;startArrow=none;" parent="1" source="91" target="66" edge="1">
                    <mxGeometry relative="1" as="geometry">
                        <mxPoint x="30" y="780" as="sourcePoint"/>
                    </mxGeometry>
                </mxCell>
                <mxCell id="68" value="כן" style="edgeStyle=none;html=1;entryX=0;entryY=0.5;entryDx=0;entryDy=0;entryPerimeter=0;fontSize=12;startArrow=none;" parent="1" source="69" target="33" edge="1">
                    <mxGeometry x="-1" y="-192" relative="1" as="geometry">
                        <Array as="points">
                            <mxPoint x="320" y="760"/>
                        </Array>
                        <mxPoint x="-238" y="-69" as="offset"/>
                    </mxGeometry>
                </mxCell>
                <mxCell id="73" value="לא" style="edgeStyle=none;html=1;fontSize=12;" parent="1" source="66" edge="1">
                    <mxGeometry relative="1" as="geometry">
                        <mxPoint x="40" y="1050" as="targetPoint"/>
                    </mxGeometry>
                </mxCell>
                <mxCell id="66" value="&lt;div style=&quot;direction: rtl;&quot;&gt;&lt;span style=&quot;background-color: initial;&quot;&gt;שתי הסיסמאות תואמות?&lt;/span&gt;&lt;/div&gt;" style="rhombus;whiteSpace=wrap;html=1;fontSize=12;fillColor=default;" parent="1" vertex="1">
                    <mxGeometry x="-40" y="840" width="140" height="90" as="geometry"/>
                </mxCell>
                <mxCell id="70" value="" style="edgeStyle=none;html=1;entryX=0;entryY=0.5;entryDx=0;entryDy=0;entryPerimeter=0;fontSize=12;endArrow=none;" parent="1" source="66" target="69" edge="1">
                    <mxGeometry x="-0.7694" y="1" relative="1" as="geometry">
                        <mxPoint x="96.04838709677415" y="882.4596774193546" as="sourcePoint"/>
                        <mxPoint x="400" y="755" as="targetPoint"/>
                        <Array as="points">
                            <mxPoint x="160" y="880"/>
                            <mxPoint x="160" y="810"/>
                        </Array>
                        <mxPoint as="offset"/>
                    </mxGeometry>
                </mxCell>
                <mxCell id="69" value="&lt;div style=&quot;direction: rtl;&quot;&gt;חזרה למסך כניסת&amp;nbsp;&lt;br&gt;משתמש רשום.&lt;/div&gt;" style="shape=tape;whiteSpace=wrap;html=1;fontSize=12;fillColor=default;size=0.2;" parent="1" vertex="1">
                    <mxGeometry x="170" y="770" width="120" height="60" as="geometry"/>
                </mxCell>
                <mxCell id="75" style="edgeStyle=none;html=1;entryX=0;entryY=0.5;entryDx=0;entryDy=0;fontSize=12;" parent="1" target="66" edge="1">
                    <mxGeometry relative="1" as="geometry">
                        <mxPoint x="40" y="1040" as="sourcePoint"/>
                        <Array as="points">
                            <mxPoint x="40" y="1080"/>
                            <mxPoint x="-90" y="1080"/>
                            <mxPoint x="-90" y="885"/>
                        </Array>
                    </mxGeometry>
                </mxCell>
                <mxCell id="74" value="הודעת שגיאה" style="shape=tape;whiteSpace=wrap;html=1;fontSize=12;fillColor=default;" parent="1" vertex="1">
                    <mxGeometry x="-20" y="1000" width="120" height="70" as="geometry"/>
                </mxCell>
                <mxCell id="78" value="users" style="shape=partialRectangle;whiteSpace=wrap;html=1;bottom=0;right=0;fillColor=#60a917;strokeColor=#00FFFF;fontColor=#18141d;strokeWidth=4;shadow=0;fontStyle=3" parent="1" vertex="1">
                    <mxGeometry x="400" y="-20" width="120" height="20" as="geometry"/>
                </mxCell>
                <mxCell id="79" value="userDB" style="shape=partialRectangle;whiteSpace=wrap;html=1;bottom=0;right=0;fillColor=#60a917;strokeColor=#00FFFF;fontColor=#18141d;strokeWidth=4;shadow=0;fontStyle=3" parent="1" vertex="1">
                    <mxGeometry x="400" y="130" width="120" height="20" as="geometry"/>
                </mxCell>
                <mxCell id="80" value="usersFSON" style="shape=partialRectangle;whiteSpace=wrap;html=1;bottom=0;right=0;fillColor=#60a917;strokeColor=#00FFFF;fontColor=#18141d;strokeWidth=4;shadow=0;fontStyle=3" parent="1" vertex="1">
                    <mxGeometry x="400" y="210" width="120" height="20" as="geometry"/>
                </mxCell>
                <mxCell id="82" value="" style="edgeStyle=none;html=1;endArrow=none;" parent="1" source="2" target="81" edge="1">
                    <mxGeometry relative="1" as="geometry">
                        <mxPoint x="460" y="300" as="sourcePoint"/>
                        <mxPoint x="460" y="350" as="targetPoint"/>
                    </mxGeometry>
                </mxCell>
                <mxCell id="81" value="emailInput" style="shape=partialRectangle;whiteSpace=wrap;html=1;bottom=0;right=0;fillColor=#60a917;strokeColor=#00FFFF;fontColor=#18141d;strokeWidth=4;shadow=0;fontStyle=3" parent="1" vertex="1">
                    <mxGeometry x="400" y="310" width="120" height="20" as="geometry"/>
                </mxCell>
                <mxCell id="84" value="searchUsersJSONWhileTyping" style="shape=partialRectangle;whiteSpace=wrap;html=1;bottom=0;right=0;fillColor=#60a917;strokeColor=#00FFFF;fontColor=#18141d;strokeWidth=4;shadow=0;fontStyle=3" parent="1" vertex="1">
                    <mxGeometry x="375" y="420" width="185" height="20" as="geometry"/>
                </mxCell>
                <mxCell id="85" value="InputField.jsx &amp;lt;&amp;lt; doFunction" style="shape=partialRectangle;whiteSpace=wrap;html=1;bottom=0;right=0;fillColor=#60a917;strokeColor=#00FFFF;fontColor=#18141d;strokeWidth=4;shadow=0;fontStyle=3" parent="1" vertex="1">
                    <mxGeometry x="375" y="540" width="185" height="20" as="geometry"/>
                </mxCell>
                <mxCell id="87" value="&lt;div style=&quot;color: rgb(171, 178, 191); background-color: rgb(35, 39, 46); font-family: &amp;quot;Noto Mono&amp;quot;, &amp;quot;OCR A Extended&amp;quot;, &amp;quot;Bahnschrift Light Condensed&amp;quot;, Consolas, &amp;quot;Courier New&amp;quot;, monospace; font-weight: normal; line-height: 24px;&quot;&gt;&lt;div&gt;&lt;span style=&quot;color: #61afef;&quot;&gt;setIsRegisteredUser&lt;/span&gt;&lt;span style=&quot;color: #abb2bf;&quot;&gt;(&lt;/span&gt;&lt;span style=&quot;color: #d19a66;&quot;&gt;false&lt;/span&gt;&lt;span style=&quot;color: #abb2bf;&quot;&gt;);&lt;/span&gt;&lt;/div&gt;&lt;/div&gt;" style="text;whiteSpace=wrap;html=1;fontSize=10;fontColor=#330000;" vertex="1" parent="1">
                    <mxGeometry x="140" y="610" width="170" height="50" as="geometry"/>
                </mxCell>
                <mxCell id="92" style="edgeStyle=none;html=1;fontSize=10;fontColor=#330000;" edge="1" parent="1" source="88" target="91">
                    <mxGeometry relative="1" as="geometry"/>
                </mxCell>
                <mxCell id="88" value="&lt;div style=&quot;direction: rtl;&quot;&gt;&lt;span style=&quot;background-color: initial;&quot;&gt;2: הכנסת סיסמאות&lt;/span&gt;&lt;/div&gt;" style="rounded=1;whiteSpace=wrap;html=1;fontSize=12;fillColor=default;" vertex="1" parent="1">
                    <mxGeometry x="-50" y="710" width="160" height="30" as="geometry"/>
                </mxCell>
                <mxCell id="93" value="" style="edgeStyle=none;html=1;entryX=0.5;entryY=0;entryDx=0;entryDy=0;fontSize=12;endArrow=none;" edge="1" parent="1" target="91">
                    <mxGeometry relative="1" as="geometry">
                        <mxPoint x="30" y="780" as="sourcePoint"/>
                        <mxPoint x="30" y="840" as="targetPoint"/>
                    </mxGeometry>
                </mxCell>
                <mxCell id="95" style="edgeStyle=none;html=1;entryX=0;entryY=0.75;entryDx=0;entryDy=0;fontSize=10;fontColor=#330000;exitX=1;exitY=0.65;exitDx=0;exitDy=0;exitPerimeter=0;" edge="1" parent="1" source="60" target="94">
                    <mxGeometry relative="1" as="geometry">
                        <Array as="points">
                            <mxPoint x="130" y="670"/>
                            <mxPoint x="140" y="705"/>
                        </Array>
                    </mxGeometry>
                </mxCell>
                <mxCell id="91" value="&lt;div style=&quot;direction: rtl;&quot;&gt;&lt;span style=&quot;background-color: initial;&quot;&gt;לחיצה על כפתור&amp;nbsp; יצירת משתמש&lt;/span&gt;&lt;/div&gt;" style="rounded=1;whiteSpace=wrap;html=1;fontSize=12;fillColor=default;" vertex="1" parent="1">
                    <mxGeometry x="-50" y="780" width="160" height="30" as="geometry"/>
                </mxCell>
                <mxCell id="96" style="edgeStyle=none;html=1;entryX=0.143;entryY=0.7;entryDx=0;entryDy=0;entryPerimeter=0;fontSize=10;fontColor=#330000;exitX=1;exitY=0.5;exitDx=0;exitDy=0;" edge="1" parent="1" source="94" target="4">
                    <mxGeometry relative="1" as="geometry"/>
                </mxCell>
                <mxCell id="94" value="&lt;div style=&quot;direction: rtl;&quot;&gt;&lt;span style=&quot;background-color: initial;&quot;&gt;לחיצה על כפתור יציאה&lt;/span&gt;&lt;/div&gt;" style="rounded=1;whiteSpace=wrap;html=1;fontSize=12;fillColor=#6d8764;fontColor=#ffffff;strokeColor=#3A5431;" vertex="1" parent="1">
                    <mxGeometry x="180" y="680" width="160" height="30" as="geometry"/>
                </mxCell>
                <mxCell id="97" value="" style="edgeStyle=none;html=1;entryX=0.5;entryY=0;entryDx=0;entryDy=0;fontSize=12;endArrow=none;" edge="1" parent="1" source="4" target="86">
                    <mxGeometry x="0.3333" relative="1" as="geometry">
                        <mxPoint x="460" y="680" as="sourcePoint"/>
                        <mxPoint x="460" y="710" as="targetPoint"/>
                        <mxPoint as="offset"/>
                    </mxGeometry>
                </mxCell>
                <mxCell id="86" value="&lt;div style=&quot;background-color: rgb(35, 39, 46); font-family: &amp;quot;Noto Mono&amp;quot;, &amp;quot;OCR A Extended&amp;quot;, &amp;quot;Bahnschrift Light Condensed&amp;quot;, Consolas, &amp;quot;Courier New&amp;quot;, monospace; font-weight: normal; line-height: 24px; font-size: 10px;&quot;&gt;&lt;div&gt;&lt;span style=&quot;&quot;&gt;setIsRegisteredUser&lt;/span&gt;&lt;span style=&quot;&quot;&gt;(&lt;/span&gt;&lt;span style=&quot;&quot;&gt;true&lt;/span&gt;&lt;span style=&quot;&quot;&gt;)&lt;/span&gt;&lt;/div&gt;&lt;/div&gt;" style="text;whiteSpace=wrap;html=1;fontColor=#ffffff;" vertex="1" parent="1">
                    <mxGeometry x="385" y="660" width="150" height="20" as="geometry"/>
                </mxCell>
            </root>
        </mxGraphModel>
    </diagram>
</mxfile>